<svg width="17" height="16" viewBox="0 0 17 16" fill="none" xmlns="http://www.w3.org/2000/svg">
<path d="M2.90483 7.3951C2.57077 7.3951 2.29997 7.6659 2.29996 7.99996C2.29996 8.33401 2.57076 8.60482 2.90482 8.60482L2.90483 7.3951ZM14.0953 8.00004L14.523 8.42774C14.7592 8.19153 14.7592 7.80855 14.523 7.57234L14.0953 8.00004ZM9.80891 2.85829C9.5727 2.62208 9.18972 2.62208 8.95351 2.85829C8.7173 3.09451 8.7173 3.47748 8.95351 3.7137L9.80891 2.85829ZM8.95351 12.2864C8.71729 12.5226 8.71729 12.9056 8.95351 13.1418C9.18972 13.378 9.5727 13.378 9.80891 13.1418L8.95351 12.2864ZM2.90482 8.60482L14.0953 8.6049L14.0953 7.39518L2.90483 7.3951L2.90482 8.60482ZM8.95351 3.7137L13.6676 8.42774L14.523 7.57234L9.80891 2.85829L8.95351 3.7137ZM13.6676 7.57234L8.95351 12.2864L9.80891 13.1418L14.523 8.42774L13.6676 7.57234Z" fill="white"/>
</svg>
